<svg width="35" height="35" fill="none" xmlns="http://www.w3.org/2000/svg">
    <path d="M30.654 7.292h-2.946V4.346c0-.788-.641-1.43-1.429-1.43h-.044c-.802 0-1.443.642-1.443 1.43v2.946H21.86c-.787 0-1.429.641-1.443 1.429v.044c0 .802.641 1.443 1.443 1.443h2.932v2.932c0 .787.641 1.443 1.443 1.429h.044c.788 0 1.43-.642 1.43-1.43v-2.93h2.945c.788 0 1.43-.642 1.43-1.43v-.058c0-.788-.642-1.43-1.43-1.43zm-7.32 5.848v-1.473H21.86a2.94 2.94 0 0 1-2.056-.846 2.966 2.966 0 0 1-.846-2.1c0-.525.146-1.006.394-1.43H7.292a2.925 2.925 0 0 0-2.917 2.917v17.5a2.925 2.925 0 0 0 2.917 2.917h17.5a2.925 2.925 0 0 0 2.916-2.917V15.633a2.987 2.987 0 0 1-1.487.409 2.916 2.916 0 0 1-2.888-2.902zm-.059 14.568H8.75a.729.729 0 0 1-.583-1.166l2.887-3.836c.306-.408.904-.379 1.196.03l2.333 3.514 3.807-5.075a.726.726 0 0 1 1.152-.015l4.302 5.367a.726.726 0 0 1-.569 1.181z" fill="url(#a)"/>
    <defs>
        <linearGradient id="a" x1="18.229" y1="2.917" x2="18.229" y2="30.625" gradientUnits="userSpaceOnUse">
            <stop stop-color="#BF16EA"/>
            <stop offset=".583" stop-color="#D00A0A" stop-opacity=".573"/>
            <stop offset="1" stop-color="#CBA622"/>
        </linearGradient>
    </defs>
</svg>
