<svg width="16" height="16" viewBox="0 0 16 16" fill="none" xmlns="http://www.w3.org/2000/svg">
<path fill-rule="evenodd" clip-rule="evenodd" d="M4.75 5.85484C5.177 5.85484 5.541 6.00101 5.825 6.25838C5.68 5.56069 5.455 4.98945 5.185 4.55989C4.72 3.82454 4.216 3.6129 3.75 3.6129C3.283 3.6129 2.78 3.82544 2.316 4.55989C1.835 5.32215 1.5 6.52742 1.5 8.09677C1.5 9.66613 1.835 10.8714 2.316 11.6336C2.779 12.369 3.283 12.5806 3.75 12.5806C4.217 12.5806 4.72 12.3681 5.184 11.6336C5.456 11.2032 5.68 10.6328 5.824 9.93426C5.68515 10.0637 5.51827 10.1664 5.33358 10.236C5.14889 10.3055 4.9503 10.3405 4.75 10.3387C3.674 10.3387 3 9.41503 3 8.09677C3 6.77851 3.674 5.85484 4.75 5.85484ZM7.5 8.09677C7.5 11.5242 6.055 13.9258 3.75 13.9258C1.445 13.9258 0 11.5242 0 8.09677C0 4.6693 1.445 2.26774 3.75 2.26774C6.055 2.26774 7.5 4.6693 7.5 8.09677ZM14.325 9.93516C14.18 10.6328 13.955 11.2041 13.685 11.6336C13.221 12.369 12.717 12.5806 12.25 12.5806C11.783 12.5806 11.28 12.3681 10.816 11.6336C10.335 10.8714 10 9.66613 10 8.09677C10 6.52742 10.335 5.32215 10.816 4.55989C11.279 3.82454 11.783 3.6129 12.25 3.6129C12.717 3.6129 13.22 3.82544 13.684 4.55989C13.956 4.99034 14.18 5.56069 14.324 6.25928C14.1852 6.1298 14.0183 6.02714 13.8336 5.95759C13.6489 5.88804 13.4503 5.85307 13.25 5.85484C12.174 5.85484 11.5 6.77851 11.5 8.09677C11.5 9.41503 12.174 10.3387 13.25 10.3387C13.4504 10.3407 13.6491 10.3059 13.834 10.2365C14.0189 10.1671 14.186 10.0646 14.325 9.93516ZM16 8.09677C16 11.5242 14.555 13.9258 12.25 13.9258C9.945 13.9258 8.5 11.5242 8.5 8.09677C8.5 4.6693 9.945 2.26774 12.25 2.26774C14.555 2.26774 16 4.6693 16 8.09677Z" fill="black"/>
</svg>
