<svg width="36" height="36" viewBox="0 0 36 36" fill="none" xmlns="http://www.w3.org/2000/svg">
<path fill-rule="evenodd" clip-rule="evenodd" d="M8.25 8.90697C8.02197 8.77532 7.76331 8.70601 7.50001 8.70601C7.23671 8.70601 6.97804 8.77532 6.75002 8.90696C6.52199 9.03861 6.33263 9.22796 6.20098 9.45599C6.06932 9.68401 6.00001 9.94267 6 10.206V25.794C6.00001 26.0573 6.06932 26.3159 6.20098 26.544C6.33263 26.772 6.52199 26.9613 6.75002 27.093C6.97804 27.2246 7.23671 27.2939 7.50001 27.2939C7.76331 27.2939 8.02197 27.2246 8.25 27.093L12 24.93V11.07L8.25 8.90697ZM12.597 7.95297L9.75 6.30897C6.75 4.57497 3 6.74097 3 10.206V25.794C3 29.259 6.75 31.4235 9.75 29.691L12.597 28.047C13.7745 30.0795 16.4775 31.0035 18.75 29.691L32.25 21.897C35.25 20.1645 35.25 15.8355 32.25 14.103L18.75 6.30897C16.4775 4.99647 13.7745 5.92047 12.597 7.95297Z" fill="black"/>
</svg>
